HIERARCHY
ROOT Hips
{
  OFFSET 5.84602e-005 68.8428 3.50346
  CHANNELS 6 Xposition Yposition Zposition Zrotation Xrotation Yrotation
  JOINT Spine
  {
    OFFSET 0 8.597 -4.6522
    CHANNELS 3 Zrotation Xrotation Yrotation
    JOINT Spine1
    {
      OFFSET 0 7.8454 0.4098
      CHANNELS 3 Zrotation Xrotation Yrotation
      JOINT Spine2
      {
        OFFSET 0 9.7078 -2.1609
        CHANNELS 3 Zrotation Xrotation Yrotation
        JOINT Neck
        {
          OFFSET 0 21.8761 -0.4549
          CHANNELS 3 Zrotation Xrotation Yrotation
          JOINT Head
          {
            OFFSET 0 12.3537 3.3602
            CHANNELS 3 Zrotation Xrotation Yrotation
            End Site
            {
              OFFSET 0.0001 18.9506 0.5657
            }
          }
        }
        JOINT LeftShoulder
        {
          OFFSET 2.2086 21.1115 7.2329
          CHANNELS 3 Zrotation Xrotation Yrotation
          JOINT LeftArm
          {
            OFFSET 13.1193 3.0282 -4.8998
            CHANNELS 3 Zrotation Xrotation Yrotation
            JOINT LeftForeArm
            {
              OFFSET 27.4081 -0.0973053 -0.2375
              CHANNELS 3 Zrotation Xrotation Yrotation
              JOINT LeftHand
              {
                OFFSET 22.8641 0.0662994 -0.1369
                CHANNELS 3 Zrotation Xrotation Yrotation
                JOINT LeftHandIndex1
                {
                  OFFSET 8.8614 0.775009 2.4612
                  CHANNELS 3 Zrotation Xrotation Yrotation
                  JOINT LeftHandIndex2
                  {
                    OFFSET 3.3146 -0.808304 0.5841
                    CHANNELS 3 Zrotation Xrotation Yrotation
                    JOINT LeftHandIndex3
                    {
                      OFFSET 2.2628 -0.552002 0.3989
                      CHANNELS 3 Zrotation Xrotation Yrotation
                      End Site
                      {
                        OFFSET 1.6102 -0.4807 0.2612
                      }
                    }
                  }
                }
                JOINT LeftHandMiddle1
                {
                  OFFSET 8.9937 0.895004 0.2143
                  CHANNELS 3 Zrotation Xrotation Yrotation
                  JOINT LeftHandMiddle2
                  {
                    OFFSET 4.0984 0.0113983 -0.0242
                    CHANNELS 3 Zrotation Xrotation Yrotation
                    JOINT LeftHandMiddle3
                    {
                      OFFSET 2.2716 0.00689697 -0.0138001
                      CHANNELS 3 Zrotation Xrotation Yrotation
                      End Site
                      {
                        OFFSET 2.0404 -0.1441 0.0027
                      }
                    }
                  }
                }
                JOINT LeftHandRing1
                {
                  OFFSET 8.5234 0.597198 -2.0164
                  CHANNELS 3 Zrotation Xrotation Yrotation
                  JOINT LeftHandRing2
                  {
                    OFFSET 3.7188 -0.188293 -0.2328
                    CHANNELS 3 Zrotation Xrotation Yrotation
                    JOINT LeftHandRing3
                    {
                      OFFSET 2.1191 -0.106598 -0.1332
                      CHANNELS 3 Zrotation Xrotation Yrotation
                      End Site
                      {
                        OFFSET 1.8737 -0.2304 -0.0886
                      }
                    }
                  }
                }
                JOINT LeftHandPinky1
                {
                  OFFSET 7.9094 -0.601089 -3.4825
                  CHANNELS 3 Zrotation Xrotation Yrotation
                  JOINT LeftHandPinky2
                  {
                    OFFSET 2.2874 -0.477005 -0.6314
                    CHANNELS 3 Zrotation Xrotation Yrotation
                    JOINT LeftHandPinky3
                    {
                      OFFSET 1.6774 -0.349396 -0.4633
                      CHANNELS 3 Zrotation Xrotation Yrotation
                      End Site
                      {
                        OFFSET 1.4888 -0.4091 -0.3416
                      }
                    }
                  }
                }
                JOINT LeftHandThumb1
                {
                  OFFSET 1.833 -1.3875 1.3896
                  CHANNELS 3 Zrotation Xrotation Yrotation
                  JOINT LeftHandThumb2
                  {
                    OFFSET 3.4129 -1.121 2.5732
                    CHANNELS 3 Zrotation Xrotation Yrotation
                    JOINT LeftHandThumb3
                    {
                      OFFSET 2.2474 -0.804199 1.6192
                      CHANNELS 3 Zrotation Xrotation Yrotation
                      End Site
                      {
                        OFFSET 1.6527 -0.5689 1.1317
                      }
                    }
                  }
                }
              }
            }
          }
        }
        JOINT RightShoulder
        {
          OFFSET -2.2086 21.1115 7.2329
          CHANNELS 3 Zrotation Xrotation Yrotation
          JOINT RightArm
          {
            OFFSET -13.1216 3.0287 -4.9007
            CHANNELS 3 Zrotation Xrotation Yrotation
            JOINT RightForeArm
            {
              OFFSET -27.4081 -0.0973053 -0.2375
              CHANNELS 3 Zrotation Xrotation Yrotation
              JOINT RightHand
              {
                OFFSET -22.8641 0.0664063 -0.1369
                CHANNELS 3 Zrotation Xrotation Yrotation
                JOINT RightHandIndex1
                {
                  OFFSET -8.8614 0.774994 2.4612
                  CHANNELS 3 Zrotation Xrotation Yrotation
                  JOINT RightHandIndex2
                  {
                    OFFSET -3.3146 -0.808304 0.5841
                    CHANNELS 3 Zrotation Xrotation Yrotation
                    JOINT RightHandIndex3
                    {
                      OFFSET -2.2628 -0.552002 0.3989
                      CHANNELS 3 Zrotation Xrotation Yrotation
                      End Site
                      {
                        OFFSET -1.6102 -0.4807 0.2612
                      }
                    }
                  }
                }
                JOINT RightHandMiddle1
                {
                  OFFSET -8.9937 0.894989 0.2143
                  CHANNELS 3 Zrotation Xrotation Yrotation
                  JOINT RightHandMiddle2
                  {
                    OFFSET -4.0984 0.0113983 -0.0242
                    CHANNELS 3 Zrotation Xrotation Yrotation
                    JOINT RightHandMiddle3
                    {
                      OFFSET -2.2716 0.00691223 -0.0138001
                      CHANNELS 3 Zrotation Xrotation Yrotation
                      End Site
                      {
                        OFFSET -2.0404 -0.1441 0.0027
                      }
                    }
                  }
                }
                JOINT RightHandRing1
                {
                  OFFSET -8.5234 0.597198 -2.0164
                  CHANNELS 3 Zrotation Xrotation Yrotation
                  JOINT RightHandRing2
                  {
                    OFFSET -3.7188 -0.188309 -0.2328
                    CHANNELS 3 Zrotation Xrotation Yrotation
                    JOINT RightHandRing3
                    {
                      OFFSET -2.1191 -0.106598 -0.1332
                      CHANNELS 3 Zrotation Xrotation Yrotation
                      End Site
                      {
                        OFFSET -1.8737 -0.2304 -0.0886
                      }
                    }
                  }
                }
                JOINT RightHandPinky1
                {
                  OFFSET -7.9094 -0.601105 -3.4825
                  CHANNELS 3 Zrotation Xrotation Yrotation
                  JOINT RightHandPinky2
                  {
                    OFFSET -2.2874 -0.477005 -0.6314
                    CHANNELS 3 Zrotation Xrotation Yrotation
                    JOINT RightHandPinky3
                    {
                      OFFSET -1.6774 -0.349396 -0.4633
                      CHANNELS 3 Zrotation Xrotation Yrotation
                      End Site
                      {
                        OFFSET -1.4888 -0.4091 -0.3416
                      }
                    }
                  }
                }
                JOINT RightHandThumb1
                {
                  OFFSET -1.833 -1.38751 1.3896
                  CHANNELS 3 Zrotation Xrotation Yrotation
                  JOINT RightHandThumb2
                  {
                    OFFSET -3.41299 -1.12099 2.5732
                    CHANNELS 3 Zrotation Xrotation Yrotation
                    JOINT RightHandThumb3
                    {
                      OFFSET -2.24741 -0.804108 1.6192
                      CHANNELS 3 Zrotation Xrotation Yrotation
                      End Site
                      {
                        OFFSET -1.6527 -0.5689 1.1317
                      }
                    }
                  }
                }
              }
            }
          }
        }
      }
    }
  }
  JOINT RightUpLeg
  {
    OFFSET -9.1966 3.8861 -0.7581
    CHANNELS 3 Zrotation Xrotation Yrotation
    JOINT RightLeg
    {
      OFFSET -0.7359 -41.0265 0
      CHANNELS 3 Zrotation Xrotation Yrotation
      JOINT RightFoot
      {
        OFFSET 0 -40.2855 0
        CHANNELS 3 Zrotation Xrotation Yrotation
        JOINT RightToeBase
        {
          OFFSET 0 -5.6122 11.7359
          CHANNELS 3 Zrotation Xrotation Yrotation
          End Site
          {
            OFFSET 0 0 7.8731
          }
        }
      }
    }
  }
  JOINT LeftUpLeg
  {
    OFFSET 9.1965 3.8864 -0.7581
    CHANNELS 3 Zrotation Xrotation Yrotation
    JOINT LeftLeg
    {
      OFFSET 0.7359 -41.0268 0
      CHANNELS 3 Zrotation Xrotation Yrotation
      JOINT LeftFoot
      {
        OFFSET 0 -40.2855 0
        CHANNELS 3 Zrotation Xrotation Yrotation
        JOINT LeftToeBase
        {
          OFFSET 0 -5.6122 11.7359
          CHANNELS 3 Zrotation Xrotation Yrotation
          End Site
          {
            OFFSET 0 0 7.8731
          }
        }
      }
    }
  }
}
MOTION
Frames:	6
Frame Time:	0.0333333
7.16319 32.8821 2.38438 0 12.9934 -0 2.54335 3.22761 -1.33487 5.17355 6.39173 -2.81872 5.17355 6.39174 -2.81872 -9.86884 -31.6544 -5.28767 -0.0444391 -18.115 -1.34255 -23.9683 -46.8918 -49.951 -31.5248 -5.54077 -5.55823 -22.0401 15.4905 -20.2753 -0.820436 -16.477 37.563 -2.46333e-006 -1.85432e-006 -6.72745e-007 4.97809e-007 -1.69799e-006 2.06509e-006 -5.57585e-007 -9.37588e-007 3.1613e-006 -2.46333e-006 -1.85432e-006 -6.72745e-007 -0.0146048 -8.99132e-005 6.28881e-007 -5.57723e-007 -9.37992e-007 3.16118e-006 -2.46333e-006 -1.85432e-006 -6.72745e-007 -0.0187523 -0.0011764 5.497e-005 1.45645e-006 -2.01638e-006 6.46495e-006 -2.46333e-006 -1.85432e-006 -6.72745e-007 -0.0121936 -0.00322743 0.000673738 -5.57619e-007 -9.37952e-007 3.16122e-006 -2.46333e-006 -1.85432e-006 -6.72745e-007 4.97809e-007 -1.69799e-006 2.06509e-006 -5.57585e-007 -9.37588e-007 3.1613e-006 -10.0823 -7.54703 -12.2951 76.4401 -40.4468 23.3506 7.60907 52.4583 79.8963 -14.5808 9.69338 -17.1542 1.37175e-006 2.73888e-006 -1.23832e-006 -2.38542e-015 -1.59028e-015 -3.18055e-015 -1.85841e-006 1.82148e-006 3.65191e-007 1.37175e-006 2.73888e-006 -1.23832e-006 0.0149892 -9.23495e-005 1.34844e-006 3.18055e-015 8.74653e-015 -6.36111e-015 1.37175e-006 2.73888e-006 -1.23832e-006 0.0190259 -0.00119057 -5.42184e-005 -1.86103e-006 1.8217e-006 3.64915e-007 1.37175e-006 2.73888e-006 -1.23832e-006 0.0123363 -0.00327017 -0.00068265 -3.18055e-015 3.97569e-015 -3.18055e-015 1.37175e-006 2.73888e-006 -1.23832e-006 -2.38542e-015 -1.59028e-015 -3.18055e-015 -1.85841e-006 1.82148e-006 3.65191e-007 -17.9803 -13.1963 -19.3327 -165.544 85.3404 162.887 8.09288 54.9351 -14.8567 -5.03128e-006 1.69534e-006 3.75908e-007 4.30755 -13.0768 19.3643 164.487 85.8186 -162.165 -20.1447 47.0168 33.0363 -1.69343e-007 1.62977e-007 -5.95565e-007 
7.16345 32.9144 2.80254 0 11.93 -0 2.57477 3.77369 -1.23492 5.24751 7.48695 -2.64741 5.24752 7.48696 -2.64741 -9.89394 -31.682 -5.3031 -0.0438239 -18.3243 -1.33247 -24.5185 -48.6708 -50.9104 -31.7701 -5.55991 -5.66613 -22.5222 15.6377 -20.6616 -0.385203 -16.586 37.8874 4.18198e-006 3.25148e-008 -4.12077e-006 -5.82476e-007 1.37837e-006 8.12154e-007 3.63046e-006 -9.02607e-007 -9.57951e-007 4.18198e-006 3.25148e-008 -4.12077e-006 -0.0146332 -9.10497e-005 -9.6461e-007 3.63022e-006 -9.02486e-007 -9.58069e-007 4.18198e-006 3.25148e-008 -4.12077e-006 -0.0188029 -0.00117876 6.05246e-005 3.63015e-006 -9.0247e-007 -9.58135e-007 4.18198e-006 3.25148e-008 -4.12077e-006 -0.0123354 -0.00326568 0.000682604 3.63023e-006 -9.02577e-007 -9.58141e-007 4.18198e-006 3.25148e-008 -4.12077e-006 -5.82476e-007 1.37837e-006 8.12154e-007 3.63046e-006 -9.02607e-007 -9.57951e-007 -11.1091 -8.15944 -13.4097 76.6014 -40.3522 23.1806 7.68359 52.6767 80.2511 -15.5663 8.86692 -16.9103 -2.51207e-006 2.49228e-006 4.82311e-007 -1.3629e-006 -2.74178e-006 1.2385e-006 -2.38542e-015 9.54166e-015 -3.18055e-015 -2.51207e-006 2.49228e-006 4.82311e-007 0.0150443 -9.40019e-005 -1.64164e-006 -3.00146e-030 -1.35174e-014 -1.27222e-014 -2.51207e-006 2.49228e-006 4.82311e-007 0.0189921 -0.00119262 -6.5474e-005 -4.77083e-015 1.03368e-014 -3.18055e-015 -2.51207e-006 2.49228e-006 4.82311e-007 0.0122531 -0.0032398 -0.000675953 -2.51098e-006 2.49203e-006 4.82056e-007 -2.51207e-006 2.49228e-006 4.82311e-007 -1.3629e-006 -2.74178e-006 1.2385e-006 -2.38542e-015 9.54166e-015 -3.18055e-015 -18.1146 -11.6751 -19.1781 -164.177 85.8422 161.536 7.48137 55.0275 -14.3562 -3.21091e-006 2.35523e-008 7.77449e-007 4.1177 -11.5913 19.0659 163.185 86.3582 -160.891 -20.3431 47.0918 33.1262 1.12892e-007 -1.0864e-007 3.97046e-007 
7.16364 32.9584 3.32452 0 10.5995 -0 2.61008 4.46299 -1.10803 5.33062 8.86967 -2.43046 5.33062 8.86967 -2.43046 -9.91864 -31.7087 -5.31839 -0.0431514 -18.5336 -1.32239 -25.3138 -50.8929 -52.2144 -32.0768 -5.58331 -5.80109 -23.1238 15.8248 -21.1437 0.160437 -16.7192 38.2944 2.90953e-007 -6.89782e-007 -4.05539e-007 -2.90953e-007 6.89782e-007 4.05539e-007 2.90953e-007 -6.89782e-007 -4.05539e-007 2.90953e-007 -6.89782e-007 -4.05539e-007 -0.014643 -8.6141e-005 -2.03129e-006 2.90944e-007 -6.8973e-007 -4.05628e-007 2.90953e-007 -6.89782e-007 -4.05539e-007 -0.0187387 -0.00117403 6.26154e-005 2.90938e-007 -6.89716e-007 -4.05655e-007 2.90953e-007 -6.89782e-007 -4.05539e-007 -0.0122957 -0.00325585 0.000675689 2.9093e-007 -6.89742e-007 -4.05621e-007 2.90953e-007 -6.89782e-007 -4.05539e-007 -2.90953e-007 6.89782e-007 4.05539e-007 2.90953e-007 -6.89782e-007 -4.05539e-007 -12.4031 -8.91757 -14.8358 76.8035 -40.2343 22.9682 7.77331 52.9496 80.6979 -16.7915 7.82723 -16.6229 1.59028e-015 -1.51076e-014 -0 -1.60312e-006 2.98519e-006 3.87906e-008 -2.53392e-006 2.46621e-006 4.69829e-007 1.59028e-015 -1.51076e-014 -0 0.0149901 -9.18042e-005 3.10179e-006 1.59028e-015 7.95139e-015 -1.27222e-014 1.59028e-015 -1.51076e-014 -0 0.0190085 -0.00119253 -5.33551e-005 7.95139e-015 -7.95139e-016 3.18055e-015 1.59028e-015 -1.51076e-014 -0 0.0122749 -0.00325016 -0.000676439 -5.56597e-015 7.95139e-016 -0 1.59028e-015 -1.51076e-014 -0 -1.60312e-006 2.98519e-006 3.87906e-008 -2.53392e-006 2.46621e-006 4.69829e-007 -18.2879 -9.76944 -18.9851 -161.927 86.4649 159.306 6.71329 55.1387 -13.727 -8.22642e-008 -8.16439e-008 -2.98413e-007 3.89351 -9.72834 18.7037 160.896 87.0292 -158.637 -20.5919 47.1853 33.2392 -9.7071e-008 -6.2913e-007 6.55279e-007 
7.16371 33.0017 3.79361 0 9.40026 -0 2.63887 5.09149 -0.991365 5.39804 10.1308 -2.23125 5.39804 10.1308 -2.23126 -9.94361 -31.7359 -5.33376 -0.0424172 -18.7429 -1.31229 -26.1324 -52.8849 -53.4849 -32.3529 -5.60371 -5.92271 -23.6648 15.9981 -21.5763 0.652704 -16.8358 38.6622 2.90509e-007 -6.90346e-007 -4.05099e-007 -3.18055e-015 3.18055e-015 -6.36111e-015 2.90509e-007 -6.90346e-007 -4.05099e-007 2.90509e-007 -6.90346e-007 -4.05099e-007 -0.0146105 -9.12216e-005 4.76426e-006 2.905e-007 -6.90294e-007 -4.05187e-007 2.90509e-007 -6.90346e-007 -4.05099e-007 -0.0187679 -0.00117984 6.18842e-005 2.90494e-007 -6.9028e-007 -4.05215e-007 2.90509e-007 -6.90346e-007 -4.05099e-007 -0.0122813 -0.00325292 0.000677939 2.90487e-007 -6.90306e-007 -4.05181e-007 2.90509e-007 -6.90346e-007 -4.05099e-007 -3.18055e-015 3.18055e-015 -6.36111e-015 2.90509e-007 -6.90346e-007 -4.05099e-007 -13.5935 -9.56616 -16.135 76.9856 -40.1286 22.7767 7.85182 53.1959 81.1015 -17.8898 6.88427 -16.3847 3.08973e-031 5.56597e-015 -3.18055e-015 -2.74778e-006 1.34575e-006 8.76337e-007 3.89514e-006 2.99544e-007 -1.6964e-006 3.08973e-031 5.56597e-015 -3.18055e-015 0.0149571 -8.5783e-005 3.25509e-006 1.34587e-006 2.74762e-006 -1.23874e-006 3.08973e-031 5.56597e-015 -3.18055e-015 0.0189973 -0.00119483 -5.7804e-005 1.34588e-006 2.74756e-006 -1.23885e-006 3.08973e-031 5.56597e-015 -3.18055e-015 0.0122208 -0.00323149 -0.000672514 1.34579e-006 2.74763e-006 -1.23871e-006 3.08973e-031 5.56597e-015 -3.18055e-015 -2.74778e-006 1.34575e-006 8.76337e-007 3.89514e-006 2.99544e-007 -1.6964e-006 -18.447 -8.04986 -18.805 -159.106 87.0189 156.501 6.01841 55.2343 -13.1573 -3.29249e-006 -5.9002e-008 4.79974e-007 3.70015 -8.0451 18.3839 157.732 87.6276 -155.505 -20.8165 47.2688 33.3418 -2.82156e-008 2.71583e-008 -9.92635e-008 
7.16367 33.0482 4.26188 0 8.19983 -0 2.6644 5.72573 -0.872682 5.45752 11.4036 -2.02867 5.45753 11.4036 -2.02867 -9.96839 -31.7629 -5.34911 -0.0416475 -18.9522 -1.30217 -27.0685 -54.8668 -54.8679 -32.6291 -5.62353 -6.04444 -24.2051 16.1754 -22.0078 1.14614 -16.9494 39.0313 5.33647e-007 9.27929e-007 -3.16836e-006 -2.07498e-006 -1.1366e-006 7.4292e-006 5.33647e-007 9.27929e-007 -3.16836e-006 5.33647e-007 9.27929e-007 -3.16836e-006 -0.0146659 -9.16741e-005 2.57365e-006 -3.70028e-007 1.91317e-006 -4.96091e-006 5.33647e-007 9.27929e-007 -3.16836e-006 -0.0187362 -0.00118067 6.90052e-005 1.43817e-006 -5.62955e-008 -1.37559e-006 5.33647e-007 9.27929e-007 -3.16836e-006 -0.0123799 -0.00327888 0.000684443 5.3368e-007 9.283e-007 -3.16828e-006 5.33647e-007 9.27929e-007 -3.16836e-006 -2.07498e-006 -1.1366e-006 7.4292e-006 5.33647e-007 9.27929e-007 -3.16836e-006 -14.803 -10.1889 -17.4524 77.1678 -40.0235 22.5851 7.92791 53.4426 81.5069 -18.9837 5.93561 -16.1649 1.8842e-007 1.09504e-006 -4.31081e-007 -6.83992e-006 -7.07292e-008 2.99476e-006 2.75011e-006 -1.33969e-006 -8.78136e-007 1.8842e-007 1.09504e-006 -4.31081e-007 0.0149815 -8.46396e-005 1.18692e-006 2.74995e-006 -1.33981e-006 -8.77963e-007 1.8842e-007 1.09504e-006 -4.31081e-007 0.0189982 -0.00119063 -4.94121e-005 2.7499e-006 -1.33982e-006 -8.77942e-007 1.8842e-007 1.09504e-006 -4.31081e-007 0.0123189 -0.00326548 -0.000677535 2.74996e-006 -1.33973e-006 -8.78063e-007 1.8842e-007 1.09504e-006 -4.31081e-007 -6.83992e-006 -7.07292e-008 2.99476e-006 2.75011e-006 -1.33969e-006 -8.78136e-007 -18.6099 -6.3272 -18.6205 -155.016 87.5624 152.427 5.32043 55.3257 -12.5845 -1.92068e-007 -1.90832e-007 -6.96176e-007 3.51537 -6.35949 18.0705 152.501 88.2122 -150.303 -21.0418 47.3519 33.4451 -1.41053e-007 1.35789e-007 -4.96324e-007 
7.16352 33.0981 4.72922 0 6.99851 -0 2.68647 6.36414 -0.752186 5.50861 12.6852 -1.82277 5.50861 12.6852 -1.82277 -9.9934 -31.79 -5.36454 -0.0408967 -19.1614 -1.29205 -28.1412 -56.8345 -56.3829 -32.9053 -5.64276 -6.16625 -24.7447 16.3566 -22.438 1.64072 -17.06 39.4018 -5.29004e-007 -9.26026e-007 3.17025e-006 3.63376e-006 -9.17233e-007 -9.73411e-007 2.89294e-007 -6.91469e-007 -4.04374e-007 -5.29004e-007 -9.26026e-007 3.17025e-006 -0.0146756 -9.16728e-005 1.49519e-006 2.89286e-007 -6.91417e-007 -4.04463e-007 -5.29004e-007 -9.26026e-007 3.17025e-006 -0.0187934 -0.00118376 6.41953e-005 2.39412e-006 -1.82475e-006 2.88776e-006 -5.29004e-007 -9.26026e-007 3.17025e-006 -0.0122818 -0.00324916 0.000673607 2.89272e-007 -6.91429e-007 -4.04456e-007 -5.29004e-007 -9.26026e-007 3.17025e-006 3.63376e-006 -9.17233e-007 -9.73411e-007 2.89294e-007 -6.91469e-007 -4.04374e-007 -16.0306 -10.7846 -18.787 77.3501 -39.9188 22.3933 8.00148 53.6896 81.9142 -20.0733 4.98192 -15.9635 9.72837e-007 5.71143e-007 -3.55439e-007 -3.7249e-006 7.63879e-007 1.23446e-006 5.73808e-031 1.03368e-014 -3.18055e-015 9.72837e-007 5.71143e-007 -3.55439e-007 0.0150128 -8.64233e-005 6.91964e-007 -1.59028e-015 1.59028e-014 -3.18055e-015 9.72837e-007 5.71143e-007 -3.55439e-007 0.0189984 -0.00118353 -5.6545e-005 3.18055e-015 4.77083e-015 -6.36111e-015 9.72837e-007 5.71143e-007 -3.55439e-007 0.012296 -0.00324889 -0.000671889 -2.38542e-015 -9.54166e-015 -6.36111e-015 9.72837e-007 5.71143e-007 -3.55439e-007 -3.7249e-006 7.63879e-007 1.23446e-006 5.73808e-031 1.03368e-014 -3.18055e-015 -18.7768 -4.60236 -18.4314 -148.639 88.0866 146.067 4.61928 55.4128 -12.0088 5.48825e-008 5.45578e-008 1.98897e-007 3.33915 -4.6673 17.7633 142.309 88.7703 -140.141 -21.2678 47.4347 33.5491 3.94876e-007 -3.80202e-007 1.38973e-006 
